<?xml version="1.0" standalone="no"?>
<!DOCTYPE svg PUBLIC "-//W3C//DTD SVG 20010904//EN"
 "http://www.w3.org/TR/2001/REC-SVG-20010904/DTD/svg10.dtd">
<svg version="1.0" xmlns="http://www.w3.org/2000/svg"
 width="890.000000pt" height="188.000000pt" viewBox="0 0 890.000000 188.000000"
 preserveAspectRatio="xMidYMid meet">

<g transform="translate(0.000000,188.000000) scale(0.100000,-0.100000)"
fill="#715BEB" stroke="none">
<path d="M710 1861 c-71 -15 -128 -60 -166 -131 -17 -32 -19 -62 -19 -360 0
-317 1 -326 22 -367 13 -23 37 -56 55 -72 57 -53 99 -61 325 -61 222 0 249 -5
271 -55 17 -38 17 -580 -1 -615 -25 -51 -64 -60 -265 -60 -198 0 -238 8 -260
53 -6 12 -12 85 -14 162 -3 137 -4 141 -34 190 -19 31 -49 61 -79 80 -46 29
-54 30 -194 36 -80 3 -154 9 -163 13 -43 20 -48 45 -48 266 l0 212 29 29 c28
28 33 29 120 29 l91 0 0 71 0 72 -103 -5 c-139 -7 -200 -40 -250 -133 -20 -37
-22 -57 -25 -255 -2 -143 0 -228 8 -255 18 -62 59 -114 115 -146 48 -28 55
-29 183 -29 140 0 181 -10 202 -49 5 -11 10 -69 10 -130 0 -191 30 -265 131
-315 52 -26 55 -26 278 -26 216 0 228 1 276 24 54 25 100 71 122 123 10 25 13
107 13 356 l0 323 -32 54 c-27 44 -44 60 -92 85 l-60 30 -207 3 c-115 1 -215
2 -222 2 -8 0 -26 12 -41 26 l-26 27 0 307 0 308 31 26 31 26 209 0 c232 0
248 -4 268 -62 6 -17 11 -82 11 -144 0 -129 14 -178 64 -233 54 -58 103 -74
256 -79 95 -3 142 -9 157 -19 37 -24 45 -80 41 -284 l-3 -189 -28 -27 c-25
-26 -35 -28 -117 -31 l-90 -4 0 -65 0 -65 108 4 c98 3 111 5 153 32 25 16 59
50 75 75 l29 46 3 234 c4 268 -1 291 -70 360 -55 56 -111 71 -260 71 -115 0
-118 1 -149 28 l-32 29 -6 149 c-6 140 -8 152 -34 197 -33 57 -89 94 -159 107
-57 11 -384 11 -438 1z"/>
<path d="M2340 950 l0 -430 104 0 104 0 0 148 c1 81 1 188 2 237 l0 90 80
-135 79 -135 68 -5 c37 -3 86 -4 108 -2 l40 4 80 136 80 137 3 -238 2 -237
105 0 105 0 0 430 0 430 -104 0 -104 0 -98 -172 c-152 -270 -168 -298 -177
-295 -5 1 -68 107 -140 235 l-131 232 -103 0 -103 0 0 -430z"/>
<path d="M3490 950 l0 -430 320 0 320 0 0 95 0 95 -215 0 -215 0 0 70 0 70
170 0 c106 0 170 4 171 10 0 6 1 49 1 98 l1 87 -171 0 -172 0 0 73 0 72 215 0
215 0 0 95 0 95 -320 0 -320 0 0 -430z"/>
<path d="M4280 950 l0 -430 168 0 c199 0 267 10 347 49 82 41 145 104 186 187
33 67 34 72 34 194 0 122 -1 127 -33 192 -61 125 -177 208 -317 228 -38 5
-141 10 -227 10 l-158 0 0 -430z m437 204 c85 -53 122 -172 89 -286 -29 -102
-114 -156 -243 -157 l-73 -1 0 241 0 242 90 -5 c77 -5 98 -10 137 -34z"/>
<path d="M5190 950 l0 -430 100 0 100 0 2 28 c1 15 2 208 2 429 l1 403 -102 0
-103 0 0 -430z"/>
<path d="M5737 1360 c-123 -39 -179 -103 -185 -210 -2 -38 1 -85 8 -105 27
-83 120 -148 257 -179 151 -34 224 -76 207 -119 -12 -32 -69 -40 -238 -33 -88
3 -180 8 -203 12 l-41 6 1 -91 c2 -102 5 -106 71 -115 169 -23 340 -14 440 21
113 41 173 131 164 247 -11 127 -75 180 -287 237 -134 35 -168 51 -183 84 -26
57 45 80 218 71 67 -4 145 -11 173 -15 l52 -8 -3 96 -3 96 -65 12 c-104 19
-314 16 -383 -7z"/>
<path d="M6632 1360 c-159 -57 -256 -172 -282 -334 -27 -168 42 -350 163 -432
91 -63 147 -78 287 -77 69 1 152 7 185 15 l60 13 3 104 c2 94 1 103 -14 97
-77 -30 -260 -44 -334 -26 -107 26 -158 116 -148 260 7 92 37 146 102 179 44
23 60 25 155 24 70 -1 129 -8 174 -21 l68 -19 -3 106 -3 106 -65 12 c-105 19
-285 16 -348 -7z"/>
<path d="M7315 983 c-87 -219 -165 -413 -172 -431 l-14 -33 113 3 113 3 30 85
30 85 157 3 c180 3 162 12 203 -107 l22 -66 112 -3 c104 -2 112 -1 107 15 -3
10 -80 202 -170 428 l-164 410 -104 3 -104 3 -159 -398z m315 17 c22 -60 36
-111 32 -113 -17 -10 -172 -3 -172 7 0 6 19 63 42 128 31 86 44 114 51 103 5
-9 26 -65 47 -125z"/>
<path d="M8149 1363 c-1 -23 -1 -814 0 -830 1 -10 28 -13 101 -13 l100 0 0
251 c0 137 3 248 8 245 4 -2 82 -115 172 -250 l165 -245 103 -1 102 0 0 430 0
430 -100 0 -100 0 0 -250 c0 -137 -3 -250 -7 -250 -5 1 -83 112 -174 248
l-166 247 -101 3 c-92 2 -102 1 -103 -15z"/>
</g>
</svg>
