<?xml version="1.0" standalone="no"?>
<!DOCTYPE svg PUBLIC "-//W3C//DTD SVG 20010904//EN"
 "http://www.w3.org/TR/2001/REC-SVG-20010904/DTD/svg10.dtd">
<svg version="1.0" xmlns="http://www.w3.org/2000/svg"
 width="186.000000pt" height="186.000000pt" viewBox="0 0 186.000000 186.000000"
 preserveAspectRatio="xMidYMid meet">

<g transform="translate(0.000000,186.000000) scale(0.100000,-0.100000)"
fill="#715BEB" stroke="none">
<path d="M715 1851 c-69 -17 -125 -62 -161 -131 -17 -32 -19 -62 -19 -360 0
-317 1 -326 22 -367 13 -23 37 -56 55 -72 57 -53 99 -61 325 -61 222 0 249 -5
271 -55 13 -28 16 -559 3 -604 -3 -13 -19 -34 -34 -45 -26 -19 -44 -21 -200
-24 -195 -4 -246 1 -279 28 -22 17 -23 27 -28 172 -5 151 -6 156 -35 204 -19
30 -49 60 -79 79 -47 29 -55 30 -195 36 -80 3 -154 9 -163 13 -43 20 -48 45
-48 266 l0 212 29 29 c28 28 33 29 120 29 l91 0 0 70 0 70 -75 0 c-121 0 -170
-15 -225 -69 -70 -68 -80 -109 -80 -345 0 -109 5 -208 11 -231 17 -61 62 -118
117 -148 47 -25 58 -27 176 -27 136 0 186 -12 205 -48 6 -12 11 -74 11 -140 0
-184 31 -256 132 -306 51 -26 55 -26 272 -26 122 0 237 5 257 10 48 13 118 75
140 124 17 37 19 72 19 361 0 317 0 320 -24 372 -17 35 -38 60 -64 78 -73 48
-120 56 -332 55 -107 -1 -203 2 -213 6 -43 16 -47 47 -47 359 l0 297 29 29 29
29 212 0 c233 0 249 -4 269 -62 6 -17 11 -81 11 -143 0 -130 14 -183 63 -233
60 -63 96 -74 252 -80 158 -6 179 -13 195 -71 5 -20 10 -114 10 -209 0 -248
-9 -263 -151 -270 l-89 -4 0 -65 0 -65 108 4 c98 3 111 5 153 32 25 16 58 48
72 71 l27 42 0 260 0 261 -32 48 c-54 79 -101 97 -274 103 -195 8 -190 3 -200
203 -6 137 -9 151 -36 198 -31 54 -80 91 -144 109 -43 12 -411 13 -459 2z"/>
</g>
</svg>
